<svg xmlns="http://www.w3.org/2000/svg" xmlns:xlink="http://www.w3.org/1999/xlink" version="1.2" baseProfile="tiny" x="0px" y="0px" viewBox="0 0 100 125" xml:space="preserve"><path d="M92.3278809,46.5915833c-0.1083984,0-0.2158203,0.0037842-0.3225098,0.010376l-3.6612549-13.5776978  c1.6922607-0.8509521,2.8563232-2.6035767,2.8563232-4.623291c0-2.8518066-2.3203125-5.1721191-5.1721191-5.1721191  c-1.4447021,0-2.7528076,0.5957031-3.6921387,1.5541992l-10.6931152-6.9154053  c0.2296143-0.5844116,0.355835-1.2203979,0.355835-1.8852539c0-2.8517456-2.3204346-5.1721191-5.1721191-5.1721191  c-2.315918,0-4.2813721,1.5303955-4.9382324,3.6328735l-13.883667-1.4083862  c-0.2600098-2.6102905-2.4688721-4.6557617-5.1464844-4.6557617c-2.8516846,0-5.1721191,2.3203735-5.1721191,5.1721191  c0,0.2208252,0.0140381,0.4384766,0.0410156,0.6520996L22.947998,19.2227478  c-0.8984375-1.532959-2.5635986-2.5646973-4.465332-2.5646973c-2.8516846,0-5.1721191,2.3198242-5.1721191,5.1716309  c0,1.536499,0.6739502,2.918396,1.7412109,3.8665771l-5.7349854,9.9091797  c-0.5169678-0.1738281-1.0699463-0.2681885-1.6446533-0.2681885C4.8203125,35.3372498,2.5,37.6576233,2.5,40.5093689  c0,2.8518066,2.3203125,5.1721191,5.1721191,5.1721191c0.3548584,0,0.7015381-0.0360107,1.036499-0.1044312l4.3067627,10.1087646  c-1.3500977,0.9342651-2.2363281,2.4932861-2.2363281,4.2555542c0,2.8518066,2.3203125,5.1721191,5.1721191,5.1721191  c1.6469727,0,3.1164551-0.7739258,4.064209-1.9772339l7.4414063,3.7341919  c-0.1165771,0.430542-0.1791992,0.8830566-0.1791992,1.3499756c0,2.8517456,2.3203125,5.1721191,5.1721191,5.1721191  s5.1721191-2.3203735,5.1721191-5.1721191c0-0.0292969-0.0006104-0.0585327-0.0010986-0.0877075l8.7926025-1.9473877  c0.8077393,1.8059692,2.6213379,3.067688,4.7241211,3.067688c0.7336426,0,1.4316406-0.1538696,2.0644531-0.4304199  l9.8706055,14.0726929c-0.8782959,0.9273682-1.4178467,2.1786499-1.4178467,3.5535889  c0,2.8517456,2.3204346,5.1721191,5.1721191,5.1721191s5.1721191-2.3203735,5.1721191-5.1721191  c0-1.7834473-0.9075928-3.3590088-2.2850342-4.2892456l4.4125977-10.6917114  c0.3171387,0.0609741,0.6442871,0.0933228,0.9787598,0.0933228c2.8518066,0,5.1721191-2.3203125,5.1721191-5.1721191  c0-0.9030762-0.2329102-1.7527466-0.6414795-2.4924316l9.4993896-8.0668945  c0.8798828,0.6922607,1.9888916,1.1055298,3.192627,1.1055298c2.8518066,0,5.1721191-2.3198242,5.1721191-5.1716309  C97.5,48.9119568,95.1796875,46.5915833,92.3278809,46.5915833z M86.0283203,25.2940369  c1.7133789,0,3.1069336,1.3936157,3.1069336,3.1069336c0,1.7127686-1.3935547,3.1063843-3.1069336,3.1063843  c-1.7132568,0-3.1069336-1.3936157-3.1069336-3.1063843C82.9213867,26.6876526,84.3150635,25.2940369,86.0283203,25.2940369z   M82.3847656,32.0677185c0.3671875,0.3648682,0.7888184,0.6749268,1.2513428,0.9172363L75.513916,61.2331238  c-0.1348877-0.0105591-0.2711182-0.0161133-0.4086914-0.0161133c-0.203125,0-0.4033203,0.012146-0.6003418,0.0350342  L69.388916,45.6771545c1.5578613-0.8920288,2.6099854-2.5709229,2.6099854-4.4911499  c0-0.6891479-0.1358643-1.3471069-0.3817139-1.9489136L82.3847656,32.0677185z M66.8267822,44.29245  c-1.7132568,0-3.1068115-1.3936157-3.1068115-3.1064453c0-1.7132568,1.3935547-3.1068726,3.1068115-3.1068726  s3.1068115,1.3936157,3.1068115,3.1068726C69.9335938,42.8988342,68.5400391,44.29245,66.8267822,44.29245z M70.5189209,19.6003113  l10.6932373,6.9154053c-0.2296143,0.5844116-0.355957,1.2203979-0.355957,1.8852539  c0,0.689209,0.1359863,1.3471069,0.3817139,1.9489136l-10.767334,7.1692505  c-0.7027588-0.6983643-1.604248-1.1967773-2.6112061-1.4016113V21.0508728  C68.8896484,20.8412781,69.8094482,20.3242493,70.5189209,19.6003113z M66.8267822,12.8755188  c1.7132568,0,3.1068115,1.3936157,3.1068115,3.1068726c0,1.7133179-1.3935547,3.1069336-3.1068115,3.1069336  s-3.1068115-1.3936157-3.1068115-3.1069336C63.7199707,14.2691345,65.1135254,12.8755188,66.8267822,12.8755188z   M63.6408691,20.0540466c0.6201172,0.4862061,1.3535156,0.8341064,2.1533203,0.9968262v15.0666504  c-0.7746582,0.1575928-1.4868164,0.4890747-2.0939941,0.9514771l-6.9552002-6.1027222  c0.43396-0.7564697,0.6824951-1.6323853,0.6824951-2.5653076c0-0.9064941-0.2348633-1.7590332-0.6462402-2.5006714  L63.6408691,20.0540466z M46.0107422,43.526886l4.9464111-10.1193848c0.414917,0.107666,0.8499756,0.1650391,1.2982178,0.1650391  c1.1738281,0,2.2575684-0.3933716,3.126709-1.0548706l6.9550781,6.1026611  c-0.434082,0.7565918-0.6824951,1.6326904-0.6824951,2.5656738c0,1.3953857,0.5557861,2.663208,1.4572754,3.5944214  l-9.9616699,14.5361328c-0.6190186-0.2625122-1.2991943-0.4077759-2.0128174-0.4077759  c-0.46875,0-0.9228516,0.0630493-1.3549805,0.180481l-3.7248535-7.4038696  c1.2009277-0.947998,1.9729004-2.4161377,1.9729004-4.0611572C48.0305176,45.9579773,47.2382813,44.4734802,46.0107422,43.526886z   M44.1567383,42.6172791c-0.4150391-0.107666-0.8500977-0.1651611-1.2983398-0.1651611  c-1.5163574,0-2.8825684,0.6560669-3.8294678,1.6993408l-5.833374-3.4614258  c0.1855469-0.5322266,0.2867432-1.1036377,0.2867432-1.6983032c0-1.5460205-0.682251-2.9356689-1.7611084-3.8842773  l9.5179443-16.644165c0.5096436,0.168457,1.0540771,0.2599487,1.6192627,0.2599487  c0.6468506,0,1.2661133-0.1196899,1.8374023-0.3375244l3.9785156,6.2872925  c-0.9798584,0.9417725-1.5905762,2.2648315-1.5905762,3.7279663c0,1.6661987,0.7921143,3.1505737,2.0194092,4.0969849  L44.1567383,42.6172791z M45.965332,47.6242371c0,1.7132568-1.3935547,3.1068726-3.1069336,3.1068726  c-1.7131348,0-3.1068115-1.3936157-3.1068115-3.1068726c0-1.7133179,1.3936768-3.1069336,3.1068115-3.1069336  C44.5717773,44.5173035,45.965332,45.9109192,45.965332,47.6242371z M49.1489258,28.4009705  c0-1.7133179,1.3935547-3.1069336,3.1064453-3.1069336c1.7131348,0,3.1068115,1.3936157,3.1068115,3.1069336  c0,1.7127686-1.3936768,3.1063843-3.1068115,3.1063843C50.5424805,31.5073547,49.1489258,30.113739,49.1489258,28.4009705z   M47.796875,15.0899353l13.8834229,1.4084473c0.0709229,0.7139282,0.2880859,1.385376,0.6204834,1.9844971l-6.8598633,5.8463135  c-0.8786621-0.6890259-1.9851074-1.1003418-3.1855469-1.1003418c-0.6467285,0-1.2658691,0.1196899-1.8371582,0.3374634  l-3.9783936-6.2872925C47.0610352,16.6820984,47.5339355,15.9319153,47.796875,15.0899353z M42.8583984,10.4442444  c1.7133789,0,3.1069336,1.3936157,3.1069336,3.1068726c0,1.7133179-1.3935547,3.1069336-3.1069336,3.1069336  c-1.7131348,0-3.1068115-1.3936157-3.1068115-3.1069336C39.7515869,11.8378601,41.1452637,10.4442444,42.8583984,10.4442444z   M23.6547852,21.8296814c0-0.2208252-0.013916-0.4384766-0.0408936-0.6520996l14.7791748-5.0194702  c0.2816162,0.4804688,0.6385498,0.9116821,1.0544434,1.2773438l-9.5179443,16.644104  c-0.5096436-0.168457-1.0540771-0.2599487-1.6193848-0.2599487c-0.5665283,0-1.1121826,0.0919189-1.6226807,0.2610474  l-4.791748-8.3683472C22.9735107,24.7637024,23.6547852,23.3747864,23.6547852,21.8296814z M31.4169922,38.9917297  c0,1.7133179-1.3935547,3.1069336-3.1068115,3.1069336s-3.1069336-1.3936157-3.1069336-3.1069336  c0-1.7132568,1.3936768-3.1068726,3.1069336-3.1068726S31.4169922,37.2784729,31.4169922,38.9917297z M18.482666,18.7232361  c1.7133789,0,3.1069336,1.3936768,3.1069336,3.1064453c0,1.7132568-1.3935547,3.1068726-3.1069336,3.1068726  c-1.7131348,0-3.1068115-1.3936157-3.1068115-3.1068726C15.3758545,20.1169128,16.7695313,18.7232361,18.482666,18.7232361z   M7.6721191,43.6163025c-1.7132568,0-3.1069336-1.3936157-3.1069336-3.1069336c0-1.7132568,1.3936768-3.1068726,3.1069336-3.1068726  s3.1069336,1.3936157,3.1069336,3.1068726C10.7790527,42.2226868,9.385376,43.6163025,7.6721191,43.6163025z M10.6075439,44.7652283  c1.3502197-0.9342041,2.2366943-2.4934082,2.2366943-4.2558594c0-1.536438-0.6738281-2.918396-1.7412109-3.8665771  l5.7351074-9.9091797c0.5168457,0.1738281,1.0699463,0.2681885,1.6445313,0.2681885  c0.5664063,0,1.1118164-0.0917969,1.6223145-0.2608643l4.791748,8.3685303  c-1.0775146,0.9486084-1.758667,2.3373413-1.758667,3.8822632c0,1.5209961,0.6601563,2.890686,1.7088623,3.8379517  l-7.210083,12.2219238c-0.5286865-0.1828003-1.0957031-0.2823486-1.6856689-0.2823486  c-0.3551025,0-0.7019043,0.0360107-1.0369873,0.1044922L10.6075439,44.7652283z M15.9511719,63.0483093  c-1.7133789,0-3.1069336-1.3936157-3.1069336-3.1069336c0-1.7132568,1.3935547-3.1068726,3.1069336-3.1068726  c1.7127686,0,3.1064453,1.3936157,3.1064453,3.1068726C19.0576172,61.6546936,17.6639404,63.0483093,15.9511719,63.0483093z   M19.4143066,56.1036072l7.2102051-12.2221069c0.5285645,0.1827393,1.0957031,0.2823486,1.6856689,0.2823486  c1.5164795,0,2.8825684-0.6560669,3.8294678-1.6992798l5.8334961,3.4614868  c-0.1855469,0.5322266-0.2868652,1.1035767-0.2868652,1.6981812c0,0.4024658,0.0463867,0.7943726,0.1337891,1.1706543  l-17.6929932,8.0992432C19.9168701,56.606842,19.6779785,56.3418274,19.4143066,56.1036072z M32.449707,71.327301  c-1.7133789,0-3.1069336-1.3936157-3.1069336-3.1068726c0-1.7133179,1.3935547-3.1069336,3.1069336-3.1069336  c1.7132568,0,3.1069336,1.3936157,3.1069336,3.1069336C35.5566406,69.9336853,34.1629639,71.327301,32.449707,71.327301z   M45.965332,64.0809021c0,0.0292969,0.0007324,0.0584717,0.0012207,0.0876465l-8.7927246,1.9474487  c-0.8077393-1.8059692-2.6213379-3.067688-4.7241211-3.067688c-1.6472168,0-3.1169434,0.7741089-4.0646973,1.9775391  l-7.4414063-3.7342529c0.1165771-0.430603,0.1791992-0.8832397,0.1791992-1.3502197  c0-0.4025879-0.0463867-0.7944946-0.1337891-1.1708374l17.6931152-8.0993042  c0.9416504,1.2872314,2.4628906,2.1251221,4.1762695,2.1251221c0.46875,0,0.9230957-0.0630493,1.3552246-0.180481  l3.7247314,7.4038696C46.7375488,60.9677429,45.965332,62.4358826,45.965332,64.0809021z M51.1374512,67.1878357  c-1.7132568,0-3.1069336-1.3936768-3.1069336-3.1069336s1.3936768-3.1068726,3.1069336-3.1068726  c1.7133789,0,3.1069336,1.3936157,3.1069336,3.1068726S52.8508301,67.1878357,51.1374512,67.1878357z M64.8139648,45.9498596  c0.6188965,0.2624512,1.2993164,0.4077759,2.0128174,0.4077759c0.2030029,0,0.4031982-0.012146,0.6002197-0.0350342  l5.1159668,15.5751953c-1.1304932,0.647583-1.9941406,1.7096558-2.3830566,2.977417L56.28125,63.5386658  c-0.1235352-1.1801147-0.645752-2.2433472-1.4289551-3.0524902L64.8139648,45.9498596z M69.9335938,86.4488831  c0,1.7132568-1.3935547,3.1068726-3.1068115,3.1068726s-3.1068115-1.3936157-3.1068115-3.1068726  s1.3935547-3.1068726,3.1068115-3.1068726S69.9335938,84.7356262,69.9335938,86.4488831z M67.8059082,81.3701477  c-0.3171387-0.0610352-0.6445313-0.0933838-0.979126-0.0933838c-0.7335205,0-1.4318848,0.1538696-2.0646973,0.430542  l-9.8704834-14.0725708c0.5421143-0.5723267,0.9550781-1.2678833,1.1918945-2.039917l13.87854,1.3364868  c0.1629639,1.5579834,1.0203857,2.9124756,2.2564697,3.7471924L67.8059082,81.3701477z M75.1052246,69.4960632  c-1.7126465,0-3.1063232-1.3936157-3.1063232-3.1069336c0-1.7132568,1.3936768-3.1068726,3.1063232-3.1068726  c1.7133789,0,3.1069336,1.3936157,3.1069336,3.1068726C78.2121582,68.1024475,76.8186035,69.4960632,75.1052246,69.4960632z   M87.1557617,51.7637024c0,0.9031982,0.2329102,1.7528076,0.6416016,2.4924927l-9.4991455,8.0667725  c-0.2492676-0.196167-0.5170898-0.3696899-0.8001709-0.5180054l8.1223145-28.2484741  c0.1347656,0.0105591,0.270752,0.0160522,0.407959,0.0160522c0.1082764,0,0.2155762-0.0037231,0.3222656-0.0103149  l3.661377,13.5778809C88.3198242,47.9912415,87.1557617,49.7440491,87.1557617,51.7637024z M92.3278809,54.8700867  c-1.7132568,0-3.1069336-1.3936157-3.1069336-3.1063843c0-1.7132568,1.3936768-3.1068726,3.1069336-3.1068726  s3.1069336,1.3936157,3.1069336,3.1068726C95.4348145,53.4764709,94.0411377,54.8700867,92.3278809,54.8700867z"/></svg>