<?xml version="1.0" encoding="UTF-8"?>
<svg id="Layer_2" data-name="Layer 2" xmlns="http://www.w3.org/2000/svg" viewBox="0 0 485.73 64.91">
  <defs>
    <style>
      .cls-1 {
        fill: #231f20;
      }
    </style>
  </defs>
  <g id="Layer_1-2" data-name="Layer 1">
    <g>
      <g>
        <path class="cls-1" d="M98.36,38.99c-3.84,2.41-7.99,3.75-11.55,3.75-5.44,0-9.58-3.09-9.58-10.29s4.15-10.26,9.58-10.29c3.47-.02,7.45,1.24,11.23,3.54l2.6-7.17c-4.62-3.49-10.03-5.3-14.83-5.3-11.65,0-19.36,8.53-19.36,19.22s7.71,19.22,19.36,19.22c4.87,0,10.48-1.9,15.16-5.51l-2.6-7.17Z"/>
        <path class="cls-1" d="M125.12,13.23c-12,0-19.92,8.53-19.92,19.22s7.92,19.22,19.92,19.22,19.94-8.58,19.94-19.22-7.85-19.22-19.94-19.22ZM125.12,42.74c-5.48,0-9.16-4.31-9.16-10.29s3.68-10.29,9.19-10.29,9.14,4.29,9.14,10.29-3.73,10.29-9.16,10.29Z"/>
        <path class="cls-1" d="M176.23,36.53c3.94-1.69,6.75-5.58,6.75-10.83.05-7.05-5.11-11.72-11.25-11.72h-20.34v36.96h10.55v-13.52h4.73l6.44,13.52h11.58l-8.46-14.41ZM170.44,28.8h-8.51v-6.16h8.51c1.34,0,2.79,1.1,2.77,3.07,0,2.02-1.45,3.09-2.77,3.09Z"/>
        <path class="cls-1" d="M186.8,13.98v8.65h10.03v28.31h10.55v-28.31h10.03v-8.65h-30.61Z"/>
        <path class="cls-1" d="M221.91,13.98v36.96h10.57V13.98h-10.57Z"/>
        <path class="cls-1" d="M255,27.93c-5.27-1.43-6.07-1.92-5.86-3.28.33-1.95,2.11-2.48,4.34-2.48,3.28,0,6.07,1.17,7.92,2.62l5.72-6.94c-3.14-2.86-7.73-4.62-13.59-4.62-8.34,0-15.14,3.49-15.14,12.26,0,7.38,4.85,8.81,12.98,11.13,4.85,1.38,5.81,1.85,5.69,3.49-.05,1.15-.63,2.62-4.27,2.62s-7.38-1.57-9.28-3.87l-6.02,6.35c3.12,4.17,9.54,6.44,15.3,6.44,6.54,0,15.05-2.95,15.05-11.93,0-8.39-7.41-10.33-12.84-11.81Z"/>
        <path class="cls-1" d="M304.49,38.99c-3.84,2.41-7.97,3.75-11.55,3.75-5.41,0-9.58-3.09-9.58-10.29s4.15-10.26,9.58-10.29c3.47-.02,7.48,1.24,11.23,3.54l2.62-7.17c-4.64-3.49-10.03-5.3-14.86-5.3-11.65,0-19.33,8.53-19.33,19.22s7.69,19.22,19.33,19.22c4.87,0,10.48-1.9,15.16-5.51l-2.6-7.17Z"/>
        <path class="cls-1" d="M331.28,13.23c-12.02,0-19.94,8.53-19.94,19.22s7.92,19.22,19.94,19.22,19.92-8.58,19.92-19.22-7.85-19.22-19.92-19.22ZM331.28,42.74c-5.48,0-9.16-4.31-9.16-10.29s3.68-10.29,9.19-10.29,9.12,4.29,9.12,10.29-3.7,10.29-9.14,10.29Z"/>
        <path class="cls-1" d="M378.2,13.98h-20.67v36.96h10.57v-12.07h10.1c6.09,0,11.25-4.9,11.25-12.44.05-7.5-5.11-12.44-11.25-12.44ZM376.3,30.25h-8.2v-7.62h8.2c1.76,0,3.4,1.31,3.37,3.8,0,2.53-1.64,3.82-3.37,3.82Z"/>
        <path class="cls-1" d="M405.83,42.27v-6.35h15.51v-8.67h-15.51v-4.62h17.55v-8.65h-28.1v36.96h24.91l3.37-8.67h-17.74Z"/>
      </g>
      <g>
        <path class="cls-1" d="M45.06,24.97l-13.2-7.62-13.2,7.62-1.82,1.06-1.82,1.05v19.44l13.2,7.62,3.64,2.1,1.83-1.06,15.02-8.67v-19.44l-3.64-2.1ZM31.86,21.55l11.38,6.57-11.38,6.57-11.38-6.57,11.38-6.57ZM18.66,44.41v-13.14l11.38,6.57v13.14l-11.38-6.57ZM45.06,44.41l-11.38,6.56v-13.13l11.38-6.57v13.14Z"/>
        <path class="cls-1" d="M31.86,0L15.02,9.73v13.15l3.64-2.1v-8.95l13.2-7.62,13.2,7.62v8.95l3.64,2.1v-13.15L31.86,0Z"/>
        <path class="cls-1" d="M24.57,56.24l-7.73,4.47-13.2-7.62v-15.24l7.73-4.47v-4.21L0,35.74v19.45l16.84,9.73,11.38-6.57-3.64-2.1Z"/>
      </g>
      <g>
        <path class="cls-1" d="M466.03,50.93l-2.9-7.91h-16.42l-2.89,7.91h-6.9l14.41-36.95h7.18l14.41,36.95h-6.89ZM461.21,37.66l-6.28-17.08-6.28,17.08h12.57Z"/>
        <path class="cls-1" d="M479.29,50.93V13.98h6.44v36.95h-6.44Z"/>
      </g>
    </g>
  </g>
</svg>