<svg xmlns="http://www.w3.org/2000/svg" xmlns:xlink="http://www.w3.org/1999/xlink" version="1.1" x="0px" y="0px" viewBox="0 0 100 125" enable-background="new 0 0 100 100" xml:space="preserve"><g><path fill="#000000" d="M53.9,68.6c-0.4,0-0.8-0.2-0.9-0.6c-0.2-0.5,0-1.1,0.5-1.3c9.4-3.9,15.2-8.2,15.2-17.1c0-0.6,0.4-1,1-1   s1,0.4,1,1c0,11.1-8.5,15.6-16.5,19C54.2,68.5,54,68.6,53.9,68.6z"/></g><g><path fill="#000000" d="M29.6,90.6c-0.6,0-1-0.4-1-1c0-10.9,7.6-15.7,15.9-19.3c0.5-0.2,1.1,0,1.3,0.5c0.2,0.5,0,1.1-0.5,1.3   c-8.8,3.8-14.7,8.2-14.7,17.5C30.6,90.2,30.2,90.6,29.6,90.6z"/></g><g><path fill="#000000" d="M45.5,28c-0.1,0-0.3,0-0.4-0.1c-8-3.3-16.5-7.8-16.5-19c0-0.6,0.4-1,1-1s1,0.4,1,1   c0,8.9,5.8,13.2,15.2,17.1c0.5,0.2,0.7,0.8,0.5,1.3C46.2,27.8,45.9,28,45.5,28z"/></g><g><path fill="#000000" d="M69.7,50c-0.6,0-1-0.4-1-1c0-9.2-5.8-13.6-14.4-17.4c-0.5-0.2-0.7-0.8-0.5-1.3c0.2-0.5,0.8-0.7,1.3-0.5   c8.1,3.5,15.6,8.3,15.6,19.2C70.7,49.6,70.3,50,69.7,50z"/></g><g><g><path fill="#000000" d="M63.5,15.8H35.9c-0.6,0-1-0.4-1-1s0.4-1,1-1h27.6c0.6,0,1,0.4,1,1S64,15.8,63.5,15.8z"/></g><g><path fill="#000000" d="M63.5,84.8H35.9c-0.6,0-1-0.4-1-1s0.4-1,1-1h27.6c0.6,0,1,0.4,1,1S64,84.8,63.5,84.8z"/></g></g><g><path fill="#000000" d="M63.5,15.8H35.9c-0.6,0-1-0.4-1-1s0.4-1,1-1h27.6c0.6,0,1,0.4,1,1S64,15.8,63.5,15.8z"/></g><g><path fill="#000000" d="M55.5,21.6H43.9c-0.6,0-1-0.4-1-1s0.4-1,1-1h11.6c0.6,0,1,0.4,1,1S56,21.6,55.5,21.6z"/></g><g><path fill="#000000" d="M55.5,78.6H43.9c-0.6,0-1-0.4-1-1s0.4-1,1-1h11.6c0.6,0,1,0.4,1,1S56,78.6,55.5,78.6z"/></g><g><path fill="#000000" d="M63.5,84.8H35.9c-0.6,0-1-0.4-1-1s0.4-1,1-1h27.6c0.6,0,1,0.4,1,1S64,84.8,63.5,84.8z"/></g><g><path fill="#000000" d="M63.8,50H35.6c-0.6,0-1-0.4-1-1s0.4-1,1-1h28.2c0.6,0,1,0.4,1,1S64.3,50,63.8,50z"/></g><g><path fill="#000000" d="M60,42.8H39.4c-0.6,0-1-0.4-1-1s0.4-1,1-1H60c0.6,0,1,0.4,1,1S60.5,42.8,60,42.8z"/></g><g><path fill="#000000" d="M52.5,37.2h-5.6c-0.6,0-1-0.4-1-1s0.4-1,1-1h5.6c0.6,0,1,0.4,1,1S53,37.2,52.5,37.2z"/></g><g><path fill="#000000" d="M52.5,63.3h-5.6c-0.6,0-1-0.4-1-1s0.4-1,1-1h5.6c0.6,0,1,0.4,1,1S53,63.3,52.5,63.3z"/></g><g><path fill="#000000" d="M60,57.5H39.4c-0.6,0-1-0.4-1-1s0.4-1,1-1H60c0.6,0,1,0.4,1,1S60.5,57.5,60,57.5z"/></g><g><path fill="#000000" d="M29.6,50c-0.6,0-1-0.4-1-1c0-12.5,10.4-16.6,20.4-20.6c10.1-4,19.7-7.8,19.7-19.5c0-0.6,0.4-1,1-1   s1,0.4,1,1c0,13-10.6,17.3-20.9,21.4C40,34.2,30.6,37.9,30.6,49C30.6,49.6,30.2,50,29.6,50z"/></g><g><path fill="#000000" d="M69.7,90.6c-0.6,0-1-0.4-1-1c0-11.1-9.3-14.8-19.2-18.7c-10.3-4.1-20.9-8.3-20.9-21.4c0-0.6,0.4-1,1-1   s1,0.4,1,1c0,11.7,9.5,15.5,19.7,19.5c10,4,20.4,8.1,20.4,20.6C70.7,90.2,70.3,90.6,69.7,90.6z"/></g></svg>